<?xml version="1.0" encoding="utf-8"?>
<!-- Generator: Adobe Illustrator 16.0.4, SVG Export Plug-In . SVG Version: 6.00 Build 0)  -->
<!DOCTYPE svg PUBLIC "-//W3C//DTD SVG 1.1//EN" "http://www.w3.org/Graphics/SVG/1.1/DTD/svg11.dtd">
<svg version="1.1" id="Layer_1" xmlns="http://www.w3.org/2000/svg" xmlns:xlink="http://www.w3.org/1999/xlink" x="0px" y="0px"
	 width="293px" height="262px" viewBox="158.5 180.5 293 262" enable-background="new 158.5 180.5 293 262" xml:space="preserve">
<g>
	<g>
		<defs>
			<polygon id="SVGID_1_" points="401.895,356.689 380.867,318.6 231.584,318.6 210.203,356.689 			"/>
		</defs>
		<clipPath id="SVGID_2_">
			<use xlink:href="#SVGID_1_"  overflow="visible"/>
		</clipPath>
		
			<linearGradient id="SVGID_3_" gradientUnits="userSpaceOnUse" x1="-172.9365" y1="-114.9434" x2="-171.9365" y2="-114.9434" gradientTransform="matrix(0 -160.6118 160.6118 0 18767.2422 -27356.3984)">
			<stop  offset="0" style="stop-color:#2C3582"/>
			<stop  offset="0.0021" style="stop-color:#2C3582"/>
			<stop  offset="0.6152" style="stop-color:#1E52A2"/>
			<stop  offset="1" style="stop-color:#2775BB"/>
		</linearGradient>
		<rect x="210.203" y="318.6" clip-path="url(#SVGID_2_)" fill="url(#SVGID_3_)" width="191.69" height="38.09"/>
	</g>
</g>
<g>
	<g>
		<defs>
			<polygon id="SVGID_4_" points="233.473,315.235 379.009,315.235 358.047,277.266 254.787,277.266 			"/>
		</defs>
		<clipPath id="SVGID_5_">
			<use xlink:href="#SVGID_4_"  overflow="visible"/>
		</clipPath>
		
			<linearGradient id="SVGID_6_" gradientUnits="userSpaceOnUse" x1="-172.9365" y1="-114.9434" x2="-171.9365" y2="-114.9434" gradientTransform="matrix(0 -160.6118 160.6118 0 18767.4922 -27356.3984)">
			<stop  offset="0" style="stop-color:#2C3582"/>
			<stop  offset="0.0021" style="stop-color:#2C3582"/>
			<stop  offset="0.6152" style="stop-color:#1E52A2"/>
			<stop  offset="1" style="stop-color:#2775BB"/>
		</linearGradient>
		<rect x="233.473" y="277.266" clip-path="url(#SVGID_5_)" fill="url(#SVGID_6_)" width="145.536" height="37.969"/>
	</g>
</g>
<g>
	<g>
		<defs>
			<polygon id="SVGID_7_" points="356.189,273.901 307.996,186.607 305.679,186.607 256.675,273.901 			"/>
		</defs>
		<clipPath id="SVGID_8_">
			<use xlink:href="#SVGID_7_"  overflow="visible"/>
		</clipPath>
		
			<linearGradient id="SVGID_9_" gradientUnits="userSpaceOnUse" x1="-172.9365" y1="-114.9424" x2="-171.9365" y2="-114.9424" gradientTransform="matrix(0 -160.6118 160.6118 0 18767.4922 -27356.3984)">
			<stop  offset="0" style="stop-color:#2C3582"/>
			<stop  offset="0.0021" style="stop-color:#2C3582"/>
			<stop  offset="0.6152" style="stop-color:#1E52A2"/>
			<stop  offset="1" style="stop-color:#2775BB"/>
		</linearGradient>
		<rect x="256.675" y="186.607" clip-path="url(#SVGID_8_)" fill="url(#SVGID_9_)" width="99.517" height="87.294"/>
	</g>
</g>
<g>
	<g>
		<defs>
			<polygon id="SVGID_10_" points="424.714,398.022 403.752,360.053 208.314,360.053 187,398.022 			"/>
		</defs>
		<clipPath id="SVGID_11_">
			<use xlink:href="#SVGID_10_"  overflow="visible"/>
		</clipPath>
		
			<linearGradient id="SVGID_12_" gradientUnits="userSpaceOnUse" x1="-172.9365" y1="-114.9429" x2="-171.9365" y2="-114.9429" gradientTransform="matrix(0 -160.6118 160.6118 0 18766.9922 -27356.3984)">
			<stop  offset="0" style="stop-color:#2C3582"/>
			<stop  offset="0.0021" style="stop-color:#2C3582"/>
			<stop  offset="0.6152" style="stop-color:#1E52A2"/>
			<stop  offset="1" style="stop-color:#2775BB"/>
		</linearGradient>
		<rect x="187" y="360.053" clip-path="url(#SVGID_11_)" fill="url(#SVGID_12_)" width="237.714" height="37.97"/>
	</g>
</g>
<g>
	<g>
		<defs>
			<polygon id="SVGID_13_" points="426.572,401.387 185.111,401.387 165.408,436.487 310.305,436.487 445.949,436.487 			"/>
		</defs>
		<clipPath id="SVGID_14_">
			<use xlink:href="#SVGID_13_"  overflow="visible"/>
		</clipPath>
		
			<linearGradient id="SVGID_15_" gradientUnits="userSpaceOnUse" x1="-172.9365" y1="-114.9424" x2="-171.9365" y2="-114.9424" gradientTransform="matrix(0 -160.6118 160.6118 0 18766.7422 -27356.3984)">
			<stop  offset="0" style="stop-color:#2C3582"/>
			<stop  offset="0.0021" style="stop-color:#2C3582"/>
			<stop  offset="0.6152" style="stop-color:#1E52A2"/>
			<stop  offset="1" style="stop-color:#2775BB"/>
		</linearGradient>
		<rect x="165.408" y="401.387" clip-path="url(#SVGID_14_)" fill="url(#SVGID_15_)" width="280.541" height="35.102"/>
	</g>
</g>
<polygon fill="#101E8E" points="321.975,193.561 321.975,193 325.973,193 325.973,193.561 324.307,193.561 324.307,197.998 
	323.641,197.998 323.641,193.561 "/>
<polygon fill="#101E8E" points="327.448,193 329.023,197.201 330.605,193 331.516,193 331.516,197.998 330.886,197.998 
	330.886,193.84 330.871,193.84 329.311,197.998 328.743,197.998 327.184,193.84 327.169,193.84 327.169,197.998 326.539,197.998 
	326.539,193 "/>
</svg>
