<?xml version="1.0" encoding="utf-8"?>
<!-- Generator: Adobe Illustrator 16.0.4, SVG Export Plug-In . SVG Version: 6.00 Build 0)  -->
<!DOCTYPE svg PUBLIC "-//W3C//DTD SVG 1.1//EN" "http://www.w3.org/Graphics/SVG/1.1/DTD/svg11.dtd">
<svg version="1.1" id="Layer_1" xmlns="http://www.w3.org/2000/svg" xmlns:xlink="http://www.w3.org/1999/xlink" x="0px" y="0px"
	 width="293px" height="262px" viewBox="158.5 180.5 293 262" enable-background="new 158.5 180.5 293 262" xml:space="preserve">
<g>
	<g>
		<defs>
			<polygon id="SVGID_1_" points="401.895,356.689 380.867,318.6 231.584,318.6 210.203,356.689 			"/>
		</defs>
		<use xlink:href="#SVGID_1_"  overflow="visible" fill="#FFFFFF"/>
		<clipPath id="SVGID_2_">
			<use xlink:href="#SVGID_1_"  overflow="visible"/>
		</clipPath>
		<rect x="210.203" y="318.6" clip-path="url(#SVGID_2_)" fill="#FFFFFF" width="191.69" height="38.09"/>
	</g>
</g>
<g>
	<g>
		<defs>
			<polygon id="SVGID_3_" points="233.473,315.235 379.009,315.235 358.047,277.266 254.787,277.266 			"/>
		</defs>
		<use xlink:href="#SVGID_3_"  overflow="visible" fill="#FFFFFF"/>
		<clipPath id="SVGID_4_">
			<use xlink:href="#SVGID_3_"  overflow="visible"/>
		</clipPath>
		<rect x="233.473" y="277.266" clip-path="url(#SVGID_4_)" fill="#FFFFFF" width="145.536" height="37.969"/>
	</g>
</g>
<g>
	<g>
		<defs>
			<polygon id="SVGID_5_" points="356.189,273.901 307.996,186.607 305.679,186.607 256.675,273.901 			"/>
		</defs>
		<use xlink:href="#SVGID_5_"  overflow="visible" fill="#FFFFFF"/>
		<clipPath id="SVGID_6_">
			<use xlink:href="#SVGID_5_"  overflow="visible"/>
		</clipPath>
		<rect x="256.675" y="186.607" clip-path="url(#SVGID_6_)" fill="#FFFFFF" width="99.517" height="87.294"/>
	</g>
</g>
<g>
	<g>
		<defs>
			<polygon id="SVGID_7_" points="424.714,398.022 403.752,360.053 208.314,360.053 187,398.022 			"/>
		</defs>
		<use xlink:href="#SVGID_7_"  overflow="visible" fill="#FFFFFF"/>
		<clipPath id="SVGID_8_">
			<use xlink:href="#SVGID_7_"  overflow="visible"/>
		</clipPath>
		<rect x="187" y="360.053" clip-path="url(#SVGID_8_)" fill="#FFFFFF" width="237.714" height="37.97"/>
	</g>
</g>
<g>
	<g>
		<defs>
			<polygon id="SVGID_9_" points="426.572,401.387 185.111,401.387 165.408,436.487 310.305,436.487 445.949,436.487 			"/>
		</defs>
		<use xlink:href="#SVGID_9_"  overflow="visible" fill="#FFFFFF"/>
		<clipPath id="SVGID_10_">
			<use xlink:href="#SVGID_9_"  overflow="visible"/>
		</clipPath>
		<rect x="165.408" y="401.387" clip-path="url(#SVGID_10_)" fill="#FFFFFF" width="280.541" height="35.102"/>
	</g>
</g>
<polygon fill="#101E8E" points="321.975,193.561 321.975,193 325.973,193 325.973,193.561 324.307,193.561 324.307,197.998 
	323.641,197.998 323.641,193.561 "/>
<polygon fill="#101E8E" points="327.448,193 329.023,197.201 330.605,193 331.516,193 331.516,197.998 330.886,197.998 
	330.886,193.84 330.871,193.84 329.311,197.998 328.743,197.998 327.184,193.84 327.169,193.84 327.169,197.998 326.539,197.998 
	326.539,193 "/>
</svg>
