<?xml version="1.0" encoding="utf-8"?>
<!-- Generator: Adobe Illustrator 16.0.4, SVG Export Plug-In . SVG Version: 6.00 Build 0)  -->
<!DOCTYPE svg PUBLIC "-//W3C//DTD SVG 1.1//EN" "http://www.w3.org/Graphics/SVG/1.1/DTD/svg11.dtd">
<svg version="1.1" id="Layer_1" xmlns="http://www.w3.org/2000/svg" xmlns:xlink="http://www.w3.org/1999/xlink" x="0px" y="0px"
	 preserveAspectRatio="none" width="612.309px" height="61.123px" viewBox="0 934.604 612.309 61.123" enable-background="new 0 934.604 612.309 61.123"
	 xml:space="preserve">
<g>
	<path fill="#FAFAFA" d="M606.665,938.854c-4.098,2.009-10.359,4.404-18.556,6.723c-4.098,1.159-8.581,2.396-13.605,3.555
		c-5.026,1.159-10.36,2.318-16.159,3.478c-5.798,1.159-11.983,2.318-18.477,3.477c-6.495,1.159-13.375,2.241-20.488,3.323
		s-14.612,2.163-22.421,3.245c-7.731,1.005-15.771,2.01-23.966,3.091c-16.468,2.01-33.939,3.864-51.877,5.642
		c-18.013,1.699-36.646,3.245-55.586,4.559c-18.941,1.391-38.192,2.782-57.443,4.096c-38.501,2.627-77.08,4.945-113.184,6.877
		c-18.091,0.928-35.563,1.932-52.108,2.705c-16.544,0.772-32.239,1.545-46.696,2.24c-28.915,1.314-53.036,2.241-69.812,2.859
		C9.664,995.418,0,995.728,0,995.728h612.309v-60.273c-0.231,0.155-0.541,0.464-1.083,0.773
		C610.299,936.923,608.752,937.85,606.665,938.854z"/>
	<path fill="#A7A9AC" d="M612,934.713v0.741c0.231-0.231,0.309-0.309,0.309-0.309L612,934.713z"/>
	<path fill="#A7A9AC" d="M611.923,934.604c0,0-0.154,0.077-0.387,0.231c-0.231,0.155-0.541,0.387-1.082,0.696
		c-1.004,0.618-2.55,1.391-4.559,2.24c-2.087,0.851-4.714,1.777-7.805,2.705c-3.091,1.004-6.723,1.932-10.818,2.858
		c-4.095,1.005-8.577,1.933-13.6,2.859c-4.945,1.005-10.354,1.854-16.15,2.782c-5.795,0.927-11.978,1.777-18.468,2.704
		c-6.491,0.851-13.368,1.7-20.478,2.627c-7.187,0.928-14.682,1.777-22.409,2.628c-7.728,0.927-15.764,1.777-23.954,2.627
		c-16.382,1.623-33.846,3.4-51.773,5.101c-17.927,1.777-36.55,3.477-55.404,5.254s-38.018,3.323-57.259,4.945
		c-38.482,3.169-76.964,5.873-112.973,8.346c-18.082,1.159-35.468,2.318-52.005,3.4c-16.536,1.082-32.146,2.009-46.595,2.937
		c-28.9,1.776-52.932,3.168-69.777,4.095C9.659,994.491,0,995.032,0,995.032v0.695c0,0,9.659-0.31,26.272-1.005
		c16.769-0.618,40.877-1.545,69.777-2.859c14.45-0.695,30.137-1.468,46.673-2.24c16.537-0.773,34-1.777,52.082-2.705
		c36.086-1.932,74.646-4.25,113.127-6.877c19.241-1.313,38.482-2.705,57.414-4.096c18.932-1.313,37.555-2.859,55.559-4.559
		c17.928-1.777,35.391-3.632,51.851-5.642c8.19-1.081,16.227-2.086,23.954-3.091c7.805-1.082,15.3-2.163,22.409-3.245
		s13.986-2.164,20.478-3.323c6.49-1.158,12.673-2.317,18.468-3.477c5.796-1.159,11.127-2.318,16.15-3.478
		c5.022-1.159,9.504-2.396,13.6-3.555c8.191-2.318,14.45-4.714,18.546-6.723c2.086-1.005,3.632-1.932,4.559-2.627
		c0.541-0.31,0.851-0.618,1.082-0.773v-0.741L611.923,934.604z"/>
</g>
</svg>
